<svg xmlns="http://www.w3.org/2000/svg" xmlns:xlink="http://www.w3.org/1999/xlink" version="1.1" x="0px" y="0px" viewBox="0 0 100 125" enable-background="new 0 0 100 100" xml:space="preserve"><path fill="#000000" d="M53.597,51.572c0.165,0.374,0.531,0.597,0.916,0.597c0.134,0,0.271-0.027,0.402-0.085  c0.505-0.223,0.734-0.812,0.512-1.318l-3.915-8.889c-0.223-0.504-0.809-0.736-1.318-0.512c-0.505,0.223-0.734,0.812-0.512,1.318  L53.597,51.572z"/><path fill="#000000" d="M61.335,53.676c0.093,0.026,0.186,0.039,0.276,0.039c0.436,0,0.835-0.285,0.961-0.724l2.68-9.336  c0.152-0.531-0.154-1.084-0.685-1.237c-0.539-0.154-1.085,0.155-1.237,0.686l-2.68,9.335C60.498,52.97,60.805,53.523,61.335,53.676z  "/><path fill="#000000" d="M42.47,53.151l8.793,4.125c0.138,0.064,0.282,0.095,0.424,0.095c0.376,0,0.736-0.213,0.906-0.575  c0.234-0.5,0.02-1.096-0.48-1.33l-8.793-4.125c-0.499-0.235-1.096-0.02-1.33,0.48C41.755,52.321,41.97,52.917,42.47,53.151z"/><path fill="#000000" d="M65.15,57.262c0.186,0.318,0.521,0.496,0.864,0.496c0.171,0,0.345-0.044,0.503-0.137l8.391-4.896  c0.478-0.278,0.638-0.891,0.359-1.367s-0.89-0.639-1.367-0.359l-8.391,4.896C65.032,56.173,64.872,56.785,65.15,57.262z"/><path fill="#000000" d="M41.59,64.62c0.057,0,0.116-0.005,0.174-0.015l9.568-1.681c0.544-0.096,0.907-0.614,0.812-1.158  c-0.097-0.544-0.618-0.905-1.158-0.812l-9.568,1.681c-0.544,0.096-0.908,0.614-0.812,1.158C40.692,64.278,41.114,64.62,41.59,64.62z  "/><path fill="#000000" d="M94.01,14.737H32.891l-3.722-6.28c-0.18-0.304-0.507-0.49-0.86-0.49H18.78c-0.344,0-0.663,0.176-0.846,0.467  l-3.97,6.303H5.99c-0.552,0-1,0.448-1,1v59.681c0,0.553,0.448,1,1,1h49.893l-0.39,17.525c-0.009,0.43,0.256,0.816,0.659,0.963  c0.111,0.04,0.227,0.06,0.341,0.06c0.298,0,0.589-0.134,0.782-0.377l11.041-13.853l0.114-0.053l17.692,0.786  c0.015,0.001,0.029,0.001,0.044,0.001c0.009,0,0.015,0,0.02,0c0.553,0,1-0.447,1-1c0-0.366-0.196-0.687-0.49-0.861l-3.828-3.191  H94.01c0.553,0,1-0.447,1-1V15.737C95.01,15.185,94.562,14.737,94.01,14.737z M19.332,9.966h8.407l2.827,4.771H16.327L19.332,9.966z   M83.249,79.34l-14.972-0.665c-0.157-0.008-0.316,0.024-0.461,0.09l-0.551,0.253c-0.143,0.065-0.268,0.163-0.365,0.286  l-9.342,11.721l0.324-14.606l0.045-2l0.353-15.897l19.065,15.897l2.399,2L83.249,79.34z M93.01,74.418H80.47L58.503,56.103  c-0.296-0.247-0.706-0.302-1.056-0.143l-0.551,0.251c-0.349,0.159-0.576,0.504-0.585,0.888l-0.385,17.319H6.99V16.737h86.02V74.418z  "/><text x="0" y="115" fill="#000000" font-size="5px" font-weight="bold" font-family="'Helvetica Neue', Helvetica, Arial-Unicode, Arial, Sans-serif">Created by Minnie Pigeon</text><text x="0" y="120" fill="#000000" font-size="5px" font-weight="bold" font-family="'Helvetica Neue', Helvetica, Arial-Unicode, Arial, Sans-serif">from the Noun Project</text></svg>