<svg xmlns="http://www.w3.org/2000/svg" data-name="Layer 1" viewBox="0 0 100 125" x="0px" y="0px"><title>Artboard 17</title><path d="M14.28,79.5h73.5a4,4,0,0,0,4-4V54a4,4,0,0,0-4-4h-18a3,3,0,0,0-3,3V69.5a4,4,0,0,1-4,4H39.28a4,4,0,0,1-4-4V53a3,3,0,0,0-3-3h-18a4,4,0,0,0-4,4v1.86H25.15a3,3,0,1,1,0,6H10.28v5.46H25.15a3,3,0,1,1,0,6H10.28V75.5A4,4,0,0,0,14.28,79.5ZM79.5,55.77a3.09,3.09,0,1,1-3.09,3.09A3.09,3.09,0,0,1,79.5,55.77Zm0,11.51a3.09,3.09,0,1,1-3.09,3.09A3.09,3.09,0,0,1,79.5,67.28Z"/><path d="M44.55,67.75h13.4a3,3,0,0,0,3-3V29.43a1,1,0,0,1,1-1h4.23a3,3,0,0,0,2.12-5.12L53.37,8.38a3,3,0,0,0-4.24,0L34.2,23.31a3,3,0,0,0,2.12,5.12h4.23a1,1,0,0,1,1,1V64.75A3,3,0,0,0,44.55,67.75Z"/><text x="0" y="115" fill="#000000" font-size="5px" font-weight="bold" font-family="'Helvetica Neue', Helvetica, Arial-Unicode, Arial, Sans-serif">Created by Bernar  Novalyi</text><text x="0" y="120" fill="#000000" font-size="5px" font-weight="bold" font-family="'Helvetica Neue', Helvetica, Arial-Unicode, Arial, Sans-serif">from the Noun Project</text></svg>