<svg xmlns="http://www.w3.org/2000/svg" xmlns:xlink="http://www.w3.org/1999/xlink" version="1.1" x="0px" y="0px" viewBox="0 0 512 640" style="enable-background:new 0 0 512 512;" xml:space="preserve"><g><g><path d="M240.369,241.417c-24.076,0-46.245,10.527-59.841,27.954c13.595,17.427,35.765,27.954,59.841,27.954    s46.246-10.527,59.841-27.954C286.614,251.944,264.445,241.417,240.369,241.417z M240.369,284.098    c-8.642,0-15.648-7-15.648-15.636c0-8.635,7.006-15.636,15.648-15.636c8.642,0,15.648,7,15.648,15.636    C256.017,277.097,249.011,284.098,240.369,284.098z"/><path d="M486,83.286V32c0-5.523-4.477-10-10-10H36c-5.523,0-10,4.477-10,10v51.286H486z M406.728,42.057h22.33v22.286h-22.33    V42.057z M362.068,42.057h22.33v22.286h-22.33V42.057z M317.408,42.057h22.33v22.286h-22.33V42.057z"/><path d="M371.561,486.585c11.124-6.41,14.95-20.659,8.526-31.762l-48.315-83.518c-11.625,10.277-24.973,18.651-39.554,24.631    l47.517,82.139C346.159,489.177,360.435,492.996,371.561,486.585z"/><path d="M239.34,157.22c-60.678,0-110.043,49.267-110.043,109.825c0,60.558,49.365,109.824,110.043,109.824    s110.043-49.266,110.043-109.824C349.383,206.487,300.018,157.22,239.34,157.22z M330.236,276.663    c-17.871,30.615-52.306,49.634-89.867,49.634s-71.997-19.019-89.867-49.634c-2.63-4.507-2.63-10.076,0-14.584    c17.871-30.615,52.306-49.634,89.867-49.634s71.997,19.018,89.867,49.634C332.867,266.587,332.867,272.156,330.236,276.663z"/><path d="M26,112.257V480c0,5.523,4.477,10,10,10h277.114L263.5,404.236c-7.85,1.373-15.922,2.094-24.16,2.094    c-76.955,0-139.563-62.483-139.563-139.286s62.608-139.286,139.563-139.286s139.563,62.483,139.563,139.286    c0,30.518-9.893,58.77-26.636,81.744l52.961,91.549c9.147,15.812,9.029,34.458,1.357,49.662H476c5.523,0,10-4.477,10-10V112.257    H26z"/></g></g><text x="0" y="527" fill="#000000" font-size="5px" font-weight="bold" font-family="'Helvetica Neue', Helvetica, Arial-Unicode, Arial, Sans-serif">Created by SBTS</text><text x="0" y="532" fill="#000000" font-size="5px" font-weight="bold" font-family="'Helvetica Neue', Helvetica, Arial-Unicode, Arial, Sans-serif">from the Noun Project</text></svg>