<svg xmlns="http://www.w3.org/2000/svg" xmlns:xlink="http://www.w3.org/1999/xlink" version="1.1" x="0px" y="0px" viewBox="0 0 100 125" enable-background="new 0 0 100 100" xml:space="preserve"><g><path fill="none" d="M25.197,34.626h49.605c0.903,0,1.74,0.263,2.477,0.688c-0.323-1.541-1.32-2.707-2.477-2.707H44.549   c-2.066,0-3.052-1.45-3.771-2.51c-0.809-1.191-1.291-1.812-2.601-1.812h-12.98c-1.407,0-2.596,1.718-2.596,3.75v3.346   C23.364,34.912,24.246,34.626,25.197,34.626z"/><path d="M74.803,30.107H44.549c-0.682,0-0.991-0.366-1.702-1.414c-0.833-1.228-1.974-2.908-4.669-2.908h-12.98   c-2.81,0-5.096,2.804-5.096,6.25v7.829v0.743v28.369c0,2.889,2.286,5.238,5.096,5.238h49.605c2.81,0,5.096-2.35,5.096-5.238V40.67   v-0.806v-3.507C79.898,32.911,77.612,30.107,74.803,30.107z M77.398,68.977c0,1.51-1.164,2.738-2.596,2.738H25.197   c-1.432,0-2.596-1.229-2.596-2.738V40.607v-0.743c0-1.51,1.164-2.738,2.596-2.738h49.605c1.432,0,2.596,1.229,2.596,2.738v0.806   V68.977z M25.197,28.285h12.98c1.31,0,1.792,0.621,2.601,1.812c0.719,1.06,1.704,2.51,3.771,2.51h30.254   c1.156,0,2.153,1.166,2.477,2.707c-0.736-0.426-1.573-0.688-2.477-0.688H25.197c-0.951,0-1.833,0.286-2.596,0.755v-3.346   C22.602,30.003,23.79,28.285,25.197,28.285z"/></g><g><g><path fill="none" stroke="#000000" stroke-width="2.5" stroke-miterlimit="10" d="M58.564,49.347"/><path fill="none" stroke="#000000" stroke-width="2.5" stroke-linejoin="round" stroke-miterlimit="10" d="M58.564,49.347"/><g><path d="M50.078,43.712c-4.113,0-7.76,2.392-9.438,6.058l-0.643-3.014l-1.279,0.273l1.152,5.405l5.406-1.153l-0.273-1.28     l-3.35,0.715c1.373-3.432,4.682-5.695,8.424-5.695c3.961,0,7.436,2.532,8.646,6.302l1.246-0.401     C58.586,46.609,54.609,43.712,50.078,43.712z"/><path d="M61.281,60.971l-1.152-5.405l-5.406,1.153l0.273,1.28l3.35-0.714c-1.373,3.43-4.682,5.694-8.424,5.694     c-3.961,0-7.436-2.532-8.646-6.302l-1.246,0.401c1.385,4.312,5.361,7.209,9.893,7.209c4.111,0,7.76-2.392,9.438-6.058     l0.643,3.014L61.281,60.971z"/></g></g></g><text x="0" y="115" fill="#000000" font-size="5px" font-weight="bold" font-family="'Helvetica Neue', Helvetica, Arial-Unicode, Arial, Sans-serif">Created by Linseed Studio</text><text x="0" y="120" fill="#000000" font-size="5px" font-weight="bold" font-family="'Helvetica Neue', Helvetica, Arial-Unicode, Arial, Sans-serif">from the Noun Project</text></svg>