<svg xmlns="http://www.w3.org/2000/svg" xmlns:xlink="http://www.w3.org/1999/xlink" version="1.1" x="0px" y="0px" viewBox="0 0 24 30" enable-background="new 0 0 24 24" xml:space="preserve"><g><path d="M21.482,3.427l-2.706-0.001l-3.697,0.002l-3.395-0.003c-0.059,0-0.157-0.04-0.199-0.079   c-0.335-0.313-0.663-0.633-0.991-0.953c-0.3-0.292-0.6-0.585-0.906-0.874C9.433,1.375,9.165,1.22,8.875,1.218   C7.812,1.212,6.748,1.211,5.684,1.211L2.248,1.212c-1.266,0-2.064,0.687-2.193,1.906C0.049,3.144,0.046,3.169,0.046,3.195v17.57   c0,0.027,0.003,0.054,0.009,0.08l-0.001,0.001c0.122,1.216,1.011,1.942,2.375,1.942H5.55l13.688-0.009   c1.008,0,1.723,0.001,1.789,0.002l0.147,0.002c0.314,0,0.63-0.023,0.906-0.051c0.631,0,1.712-0.233,1.861-1.798l0.012-0.113V5.405   c0-0.03-0.004-0.076-0.011-0.105C23.811,4.092,22.937,3.427,21.482,3.427z M0.851,3.187c0.082-0.79,0.538-1.174,1.396-1.174   l3.437-0.002c1.063,0,2.124,0.001,3.187,0.008c0.029,0,0.116,0.033,0.17,0.084c0.302,0.284,0.599,0.573,0.895,0.863   c0.332,0.323,0.664,0.647,1.004,0.965c0.19,0.177,0.48,0.293,0.742,0.295l3.397,0.002l3.697-0.002l2.706,0.002   c1.539,0,1.631,0.841,1.671,1.177l0.002,2.854H6.431c-2.544,0-4.463,0.75-5.584,2.13V3.22C0.849,3.208,0.85,3.197,0.851,3.187z    M23.146,20.859c-0.051,0.531-0.218,1.073-1.103,1.075c-0.288,0.027-0.58,0.05-0.869,0.05l-0.127-0.001   c-0.061-0.002-0.785-0.003-1.81-0.003L2.429,21.988c-0.966,0-1.497-0.411-1.579-1.222c-0.001-0.008-0.002-0.018-0.003-0.026v-8.776   C1.758,9.569,4.38,9.06,6.431,9.06h16.724l0.008,11.673C23.16,20.75,23.148,20.841,23.146,20.859z"/><path d="M14.577,14.695c-0.35-1.1-1.361-1.889-2.577-1.889c-0.752,0-1.478,0.316-1.989,0.867c-0.15,0.162-0.142,0.415,0.021,0.565   c0.161,0.149,0.414,0.141,0.565-0.021c0.361-0.389,0.873-0.611,1.403-0.611c0.8,0,1.493,0.51,1.777,1.22   c-0.169-0.061-0.363-0.01-0.467,0.147c-0.122,0.184-0.072,0.432,0.111,0.555l0.612,0.408c0.092,0.061,0.196,0.093,0.306,0.093   c0.037,0,0.075-0.004,0.112-0.012c0.143-0.029,0.271-0.114,0.351-0.235l0.408-0.612c0.122-0.184,0.072-0.432-0.111-0.555   C14.929,14.503,14.707,14.542,14.577,14.695z"/><path d="M13.36,16.875c-0.361,0.365-0.845,0.565-1.359,0.565c-0.773,0-1.449-0.474-1.749-1.15c0.159,0.046,0.337-0.007,0.438-0.152   c0.126-0.181,0.082-0.431-0.1-0.557l-0.604-0.421c-0.252-0.176-0.595-0.113-0.771,0.138l-0.421,0.604   c-0.126,0.181-0.082,0.431,0.1,0.557c0.069,0.049,0.149,0.072,0.229,0.072c0.118,0,0.231-0.057,0.309-0.155   c0.363,1.082,1.386,1.865,2.57,1.865c0.729,0,1.414-0.285,1.928-0.804c0.155-0.156,0.154-0.41-0.003-0.565   S13.515,16.718,13.36,16.875z"/></g><text x="0" y="39" fill="#000000" font-size="5px" font-weight="bold" font-family="'Helvetica Neue', Helvetica, Arial-Unicode, Arial, Sans-serif">Created by Atif Arshad</text><text x="0" y="44" fill="#000000" font-size="5px" font-weight="bold" font-family="'Helvetica Neue', Helvetica, Arial-Unicode, Arial, Sans-serif">from the Noun Project</text></svg>