<svg xmlns="http://www.w3.org/2000/svg" data-name="Layer 1" viewBox="0 0 30 37.5" x="0px" y="0px"><title>refresh-reverse-reuse-rotate</title><path d="M18.051,10.316a1,1,0,0,0,1.265.633l6-2A1,1,0,0,0,26,8V2a1,1,0,0,0-2,0V5.653a12.869,12.869,0,1,0,3.82,7.18,1,1,0,1,0-1.972.333,11.01,11.01,0,1,1-2.734-5.591l-4.43,1.476A1,1,0,0,0,18.051,10.316Z"/><text x="0" y="45" fill="#000000" font-size="5px" font-weight="bold" font-family="'Helvetica Neue', Helvetica, Arial-Unicode, Arial, Sans-serif">Created by Becris</text><text x="0" y="50" fill="#000000" font-size="5px" font-weight="bold" font-family="'Helvetica Neue', Helvetica, Arial-Unicode, Arial, Sans-serif">from the Noun Project</text></svg>