<svg xmlns="http://www.w3.org/2000/svg" xmlns:xlink="http://www.w3.org/1999/xlink" version="1.1" x="0px" y="0px" viewBox="0 0 24 30" enable-background="new 0 0 24 24" xml:space="preserve"><g><path d="M5.538,22.789l13.7-0.009c1.008,0,1.723,0.001,1.79,0.003l0.135,0.001c0.317,0,0.637-0.024,0.918-0.051   c0.631,0,1.711-0.233,1.861-1.798l0.012-0.113V5.405c0-0.03-0.004-0.076-0.011-0.105c-0.132-1.207-1.006-1.872-2.461-1.872   l-3.005-0.001l-1.662,0.001l-5.134-0.003c-0.057,0-0.154-0.039-0.196-0.078c-0.328-0.307-0.649-0.621-0.972-0.935   c-0.307-0.299-0.612-0.598-0.925-0.892C9.395,1.339,9.115,1.22,8.875,1.218c-0.99-0.005-1.981-0.007-2.973-0.007L2.249,1.213   c-1.267,0-2.064,0.687-2.194,1.905C0.049,3.143,0.046,3.169,0.046,3.194v17.571c0,0.027,0.003,0.054,0.009,0.08l-0.001,0.001   c0.122,1.216,1.011,1.942,2.376,1.942H5.538z M0.851,3.187C0.933,2.397,1.39,2.014,2.249,2.014l3.654-0.003   c0.989,0,1.979,0.002,2.968,0.008c0.028,0,0.115,0.033,0.17,0.085c0.309,0.29,0.611,0.586,0.914,0.881   c0.326,0.317,0.651,0.636,0.984,0.947c0.191,0.178,0.482,0.294,0.742,0.294l3.704,0.002l3.092-0.001l3.005,0.002   c1.539,0,1.631,0.841,1.671,1.177l0.002,2.854H6.431c-2.544,0-4.463,0.75-5.584,2.13V3.22C0.849,3.207,0.85,3.196,0.851,3.187z    M0.85,20.766c-0.001-0.007-0.002-0.017-0.003-0.025v-8.776C1.758,9.57,4.38,9.061,6.431,9.061h16.724l0.008,11.672   c-0.004,0.017-0.016,0.109-0.018,0.127c-0.051,0.531-0.218,1.073-1.102,1.075c-0.293,0.026-0.588,0.05-0.882,0.05l-0.115-0.001   c-0.061-0.002-0.785-0.003-1.81-0.003L2.43,21.988C1.463,21.988,0.932,21.577,0.85,20.766z"/><path d="M9.236,16.523h0.34c0.001,0.003,0.003,0.006,0.004,0.009l-0.241,0.24c-0.203,0.203-0.203,0.534,0.001,0.737l0.676,0.676   c0.097,0.096,0.23,0.15,0.368,0.15c0.106,0,0.293-0.076,0.368-0.15l0.239-0.24c0.004,0.001,0.008,0.003,0.011,0.005v0.339   c0,0.287,0.233,0.521,0.521,0.521h0.956c0.287,0,0.521-0.233,0.521-0.521v-0.34c0.003-0.001,0.006-0.003,0.01-0.004l0.239,0.24   c0.098,0.097,0.231,0.153,0.368,0.153c0.106,0,0.294-0.079,0.369-0.153l0.676-0.676c0.097-0.097,0.152-0.231,0.152-0.368   c0-0.106-0.078-0.294-0.152-0.369l-0.24-0.239c0.001-0.004,0.003-0.007,0.004-0.01h0.34c0.287,0,0.521-0.233,0.521-0.521v-0.956   c0-0.287-0.233-0.521-0.521-0.521h-0.34c-0.001-0.003-0.003-0.006-0.004-0.01l0.24-0.239c0.203-0.203,0.203-0.534,0-0.737   l-0.673-0.673c-0.097-0.098-0.231-0.154-0.371-0.154c-0.106,0-0.294,0.077-0.369,0.151l-0.239,0.24   c-0.004-0.001-0.007-0.003-0.01-0.004v-0.34c0-0.287-0.234-0.521-0.521-0.521h-0.956c-0.287,0-0.521,0.234-0.521,0.521v0.34   c-0.003,0.001-0.007,0.003-0.01,0.004l-0.24-0.24c-0.099-0.098-0.229-0.152-0.368-0.152c-0.106,0-0.293,0.077-0.367,0.152   l-0.678,0.676c-0.202,0.203-0.202,0.533,0,0.736l0.241,0.24c-0.001,0.004-0.003,0.007-0.004,0.01h-0.34   c-0.287,0-0.521,0.234-0.521,0.521v0.956C8.714,16.29,8.949,16.523,9.236,16.523z M9.515,15.326H9.86   c0.18,0,0.337-0.12,0.385-0.293c0.04-0.14,0.096-0.275,0.167-0.401c0.089-0.156,0.063-0.353-0.064-0.48l-0.245-0.244l0.281-0.28   l0.245,0.244c0.128,0.127,0.324,0.154,0.479,0.064c0.127-0.071,0.262-0.128,0.401-0.166c0.173-0.049,0.293-0.206,0.293-0.386   v-0.345h0.396v0.345c0,0.18,0.12,0.337,0.293,0.385c0.139,0.039,0.274,0.096,0.402,0.168c0.155,0.086,0.352,0.06,0.479-0.065   l0.244-0.244l0.28,0.28l-0.244,0.244c-0.127,0.128-0.153,0.324-0.064,0.48c0.071,0.126,0.127,0.262,0.167,0.401   c0.048,0.173,0.205,0.293,0.385,0.293h0.344v0.396h-0.344c-0.18,0-0.337,0.12-0.385,0.293c-0.04,0.14-0.096,0.275-0.167,0.401   c-0.089,0.156-0.063,0.353,0.064,0.48l0.244,0.244l-0.28,0.28l-0.244-0.244c-0.127-0.126-0.322-0.151-0.479-0.065   c-0.128,0.072-0.264,0.129-0.402,0.168c-0.173,0.048-0.293,0.205-0.293,0.385v0.344h-0.396v-0.344c0-0.18-0.12-0.337-0.293-0.386   c-0.141-0.039-0.276-0.095-0.402-0.166c-0.156-0.09-0.354-0.063-0.48,0.064l-0.243,0.244l-0.281-0.28l0.244-0.244   c0.128-0.127,0.154-0.323,0.065-0.48c-0.071-0.126-0.127-0.262-0.167-0.401c-0.048-0.173-0.205-0.293-0.385-0.293H9.515V15.326z"/><path d="M12,16.6c0.593,0,1.075-0.482,1.075-1.075c0-0.594-0.482-1.076-1.075-1.076c-0.594,0-1.076,0.482-1.076,1.076   C10.924,16.117,11.407,16.6,12,16.6z M12,15.147c0.207,0,0.376,0.169,0.376,0.377c0,0.207-0.169,0.376-0.376,0.376   c-0.208,0-0.377-0.169-0.377-0.376C11.624,15.316,11.792,15.147,12,15.147z"/></g><text x="0" y="39" fill="#000000" font-size="5px" font-weight="bold" font-family="'Helvetica Neue', Helvetica, Arial-Unicode, Arial, Sans-serif">Created by Atif Arshad</text><text x="0" y="44" fill="#000000" font-size="5px" font-weight="bold" font-family="'Helvetica Neue', Helvetica, Arial-Unicode, Arial, Sans-serif">from the Noun Project</text></svg>