<svg xmlns="http://www.w3.org/2000/svg" xmlns:xlink="http://www.w3.org/1999/xlink" version="1.1" x="0px" y="0px" viewBox="0 0 60 75" style="enable-background:new 0 0 60 60;" xml:space="preserve"><g><g><path d="M41,31H19c-1.7,0-3,1.3-3,3v16c0,1.7,1.3,3,3,3h22c1.7,0,3-1.3,3-3V34C44,32.3,42.7,31,41,31z M42,50c0,0.6-0.4,1-1,1H19    c-0.6,0-1-0.4-1-1V34c0-0.6,0.4-1,1-1h22c0.6,0,1,0.4,1,1V50z"/><path d="M36,39h-3v-3c0-0.6-0.4-1-1-1h-8c-0.6,0-1,0.4-1,1v8c0,0.6,0.4,1,1,1h3v3c0,0.6,0.4,1,1,1h8c0.6,0,1-0.4,1-1v-8    C37,39.4,36.6,39,36,39z M27,40v3h-2v-6h6v2h-3C27.4,39,27,39.4,27,40z M35,47h-6v-6h6V47z"/><path d="M57,21v-1c0-1.7-1.3-3-3-3H27c-0.6,0-1-0.4-1-1v-1c0-1.7-1.3-3-3-3H6c-1.7,0-3,1.3-3,3v9c-1.7,0-3,1.3-3,3v30    c0,1.7,1.3,3,3,3h54c1.7,0,3-1.3,3-3V24C60,22.3,58.7,21,57,21z M5,15c0-0.6,0.4-1,1-1h17c0.6,0,1,0.4,1,1v1c0,1.7,1.3,3,3,3h27    c0.6,0,1,0.4,1,1v1H32.4c-0.4,0-0.8,0.1-1.2,0.2L25,23.9C24.9,24,24.7,24,24.6,24H5V15z M58,57c0,0.6-0.4,1-1,1H3    c-0.6,0-1-0.4-1-1V27c0-0.6,0.4-1,1-1h21.6c0.4,0,0.8-0.1,1.2-0.2l6.2-2.7c0,0,0,0,0,0c0.1-0.1,0.3-0.1,0.4-0.1H57    c0.6,0,1,0.4,1,1V57z"/></g></g><g><rect y="-56" style="" width="58" height="57" fill="none"/><text transform="matrix(1 0 0 1 16.0986 -49.6099)"><tspan x="0" y="0" style="" font-family="'MyriadPro-Regular'" font-size="9px">G</tspan><tspan x="5.9" y="0" style="" font-family="'MyriadPro-Regular'" font-size="9px">ames</tspan></text></g><text x="0" y="75" fill="#000000" font-size="5px" font-weight="bold" font-family="'Helvetica Neue', Helvetica, Arial-Unicode, Arial, Sans-serif">Created by Locad</text><text x="0" y="80" fill="#000000" font-size="5px" font-weight="bold" font-family="'Helvetica Neue', Helvetica, Arial-Unicode, Arial, Sans-serif">from the Noun Project</text></svg>