<svg xmlns="http://www.w3.org/2000/svg" xmlns:xlink="http://www.w3.org/1999/xlink" version="1.1" x="0px" y="0px" viewBox="0 0 24 30" enable-background="new 0 0 24 24" xml:space="preserve"><g><path d="M21.482,3.427l-2.706-0.001l-3.697,0.002l-3.395-0.003c-0.059,0-0.157-0.04-0.199-0.079   c-0.328-0.307-0.649-0.621-0.972-0.935c-0.306-0.299-0.612-0.598-0.926-0.893C9.433,1.375,9.165,1.22,8.875,1.218   C7.812,1.212,6.749,1.211,5.684,1.211L2.249,1.212c-1.267,0-2.065,0.687-2.194,1.906C0.049,3.144,0.046,3.169,0.046,3.195v17.57   c0,0.028,0.003,0.056,0.009,0.083c0.127,1.233,0.992,1.94,2.375,1.94h3.12l13.688-0.009c1.008,0,1.723,0.001,1.789,0.002   l0.147,0.002c0.314,0,0.63-0.023,0.906-0.051c0.631,0,1.712-0.233,1.861-1.798l0.012-0.113V5.405c0-0.03-0.004-0.076-0.011-0.105   C23.811,4.092,22.937,3.427,21.482,3.427z M0.851,3.187c0.082-0.79,0.539-1.174,1.397-1.174l3.436-0.002   c1.063,0,2.125,0.001,3.187,0.008c0.029,0,0.116,0.033,0.17,0.084c0.309,0.29,0.611,0.586,0.914,0.881   c0.326,0.318,0.651,0.636,0.984,0.947c0.19,0.177,0.48,0.293,0.742,0.295l3.397,0.002l3.697-0.002l2.706,0.002   c1.539,0,1.631,0.841,1.671,1.177l0.002,2.854H6.431c-2.544,0-4.463,0.751-5.584,2.13V3.22C0.849,3.208,0.85,3.197,0.851,3.187z    M23.146,20.859c-0.051,0.531-0.218,1.073-1.103,1.075c-0.288,0.027-0.579,0.05-0.869,0.05l-0.127-0.001   c-0.061-0.002-0.785-0.003-1.81-0.003L2.43,21.988c-0.965,0-1.496-0.411-1.58-1.222c0-0.008-0.002-0.018-0.003-0.027v-8.775   C1.759,9.569,4.381,9.06,6.431,9.06h16.724l0.008,11.673C23.16,20.75,23.148,20.841,23.146,20.859z"/><path d="M14.86,12.928h-1.938v-0.312c0-0.221-0.18-0.4-0.4-0.4H11.48c-0.221,0-0.4,0.18-0.4,0.4v0.312H9.141   c-0.221,0-0.4,0.18-0.4,0.4s0.18,0.4,0.4,0.4h0.256c-0.004,0.021-0.013,0.041-0.013,0.063v4.639c0,0.221,0.18,0.4,0.4,0.4h4.432   c0.221,0,0.4-0.18,0.4-0.4v-4.639c0-0.023-0.009-0.042-0.013-0.063h0.256c0.221,0,0.4-0.18,0.4-0.4S15.081,12.928,14.86,12.928z    M10.185,18.031v-1.752h3.631v1.752H10.185z M13.816,13.792v1.686h-3.631v-1.686c0-0.023-0.009-0.042-0.013-0.063h3.657   C13.825,13.75,13.816,13.77,13.816,13.792z"/></g><text x="0" y="39" fill="#000000" font-size="5px" font-weight="bold" font-family="'Helvetica Neue', Helvetica, Arial-Unicode, Arial, Sans-serif">Created by Atif Arshad</text><text x="0" y="44" fill="#000000" font-size="5px" font-weight="bold" font-family="'Helvetica Neue', Helvetica, Arial-Unicode, Arial, Sans-serif">from the Noun Project</text></svg>