<svg xmlns="http://www.w3.org/2000/svg" xmlns:xlink="http://www.w3.org/1999/xlink" version="1.1" x="0px" y="0px" viewBox="0 0 24 30" enable-background="new 0 0 24 24" xml:space="preserve"><g><path d="M5.537,22.789l13.7-0.009c1.009,0,1.723,0.001,1.79,0.003l0.135,0.001c0.317,0,0.637-0.024,0.919-0.051   c0.63,0,1.708-0.233,1.861-1.795l0.012-0.116V5.405c0-0.03-0.004-0.076-0.011-0.105c-0.132-1.207-1.006-1.872-2.462-1.872   l-3.005-0.001l-1.662,0.001l-5.133-0.003c-0.057,0-0.154-0.039-0.196-0.078c-0.328-0.307-0.649-0.62-0.971-0.934   c-0.307-0.3-0.614-0.599-0.925-0.891C9.396,1.339,9.116,1.22,8.875,1.218C7.884,1.213,6.893,1.211,5.902,1.211L2.248,1.213   c-1.266,0-2.063,0.687-2.193,1.905C0.049,3.143,0.046,3.169,0.046,3.194v17.571c0,0.027,0.003,0.054,0.009,0.08l-0.001,0.001   c0.122,1.216,1.011,1.942,2.375,1.942H5.537z M0.851,3.187c0.082-0.789,0.538-1.173,1.396-1.173l3.654-0.003   c0.99,0,1.979,0.002,2.969,0.008c0.033,0.001,0.118,0.037,0.17,0.086c0.309,0.289,0.611,0.585,0.915,0.881   c0.325,0.317,0.65,0.635,0.983,0.946c0.191,0.178,0.482,0.294,0.742,0.294l3.703,0.002l3.092-0.001l3.005,0.002   c1.54,0,1.632,0.841,1.672,1.177l0.002,2.854H6.43c-2.544,0-4.462,0.75-5.583,2.129V3.22C0.849,3.207,0.85,3.196,0.851,3.187z    M0.85,20.767c-0.001-0.008-0.002-0.018-0.003-0.026v-8.776C1.758,9.57,4.38,9.061,6.43,9.061h16.725l0.008,11.669   c-0.004,0.018-0.017,0.113-0.018,0.131c-0.053,0.53-0.22,1.072-1.102,1.074c-0.294,0.026-0.589,0.05-0.883,0.05l-0.115-0.001   c-0.061-0.002-0.784-0.003-1.81-0.003L2.429,21.988C1.463,21.988,0.932,21.577,0.85,20.767z"/><path d="M10.891,16.63c0.583,0,1.13-0.231,1.541-0.65c0.845-0.859,0.844-2.257-0.002-3.114c-0.822-0.836-2.257-0.836-3.081,0.002   c-0.844,0.858-0.843,2.256,0.002,3.115C9.763,16.399,10.31,16.63,10.891,16.63z M9.919,13.428c0.261-0.265,0.605-0.41,0.972-0.41   c0.365,0,0.71,0.145,0.969,0.409c0.541,0.548,0.542,1.442,0.002,1.992c-0.52,0.528-1.421,0.529-1.94,0.002   C9.381,14.871,9.38,13.978,9.919,13.428z"/><path d="M12.894,16.98l1.704,1.743c0.078,0.08,0.183,0.121,0.286,0.121c0.101,0,0.202-0.038,0.279-0.114   c0.158-0.154,0.161-0.408,0.007-0.565l-1.704-1.743c-0.154-0.159-0.409-0.162-0.565-0.007C12.743,16.569,12.74,16.823,12.894,16.98   z"/></g><text x="0" y="39" fill="#000000" font-size="5px" font-weight="bold" font-family="'Helvetica Neue', Helvetica, Arial-Unicode, Arial, Sans-serif">Created by Atif Arshad</text><text x="0" y="44" fill="#000000" font-size="5px" font-weight="bold" font-family="'Helvetica Neue', Helvetica, Arial-Unicode, Arial, Sans-serif">from the Noun Project</text></svg>